<?xml version="1.0" encoding="UTF-8" standalone="no"?><!DOCTYPE svg PUBLIC "-//W3C//DTD SVG 1.1//EN" "http://www.w3.org/Graphics/SVG/1.1/DTD/svg11.dtd"><svg width="100%" height="100%" viewBox="0 0 128 128" version="1.1" xmlns="http://www.w3.org/2000/svg" xmlns:xlink="http://www.w3.org/1999/xlink" xml:space="preserve" style="fill-rule:evenodd;clip-rule:evenodd;stroke-linejoin:round;stroke-miterlimit:1.41421;"><g id="Projects"><g><circle id="button" cx="64" cy="64" r="64" style="fill:#e92d05;"/></g><g><g><g><path d="M68.856,62.5c-3.144,-1.101 -6.568,-1.101 -9.712,0c-9.378,3.282 -29.698,10.394 -37.019,12.956c-0.401,0.141 -0.669,0.519 -0.669,0.944c0,0.425 0.268,0.803 0.669,0.944c7.321,2.562 27.641,9.674 37.019,12.956c3.144,1.101 6.568,1.101 9.712,0c9.378,-3.282 29.698,-10.394 37.019,-12.956c0.401,-0.141 0.669,-0.519 0.669,-0.944c0,-0.425 -0.268,-0.803 -0.669,-0.944c-7.321,-2.562 -27.641,-9.674 -37.019,-12.956Z" style="fill:#fff;"/><path d="M64.185,58.675l0.186,0.003l0.185,0.005l0.185,0.007l0.185,0.009l0.186,0.01l0.185,0.013l0.185,0.014l0.184,0.017l0.185,0.018l0.185,0.021l0.184,0.022l0.184,0.024l0.184,0.027l0.183,0.028l0.184,0.03l0.184,0.032l0.182,0.034l0.183,0.036l0.183,0.038l0.182,0.039l0.182,0.042l0.181,0.044l0.181,0.045l0.181,0.048l0.18,0.049l0.18,0.052l0.18,0.053l0.179,0.055l0.178,0.058l0.178,0.059l0.17,0.058l37.055,12.969l0.119,0.045l0.146,0.061l0.143,0.066l0.138,0.071l0.136,0.077l0.133,0.082l0.128,0.086l0.124,0.09l0.121,0.096l0.116,0.099l0.113,0.103l0.109,0.108l0.103,0.112l0.099,0.114l0.095,0.119l0.09,0.122l0.086,0.126l0.081,0.129l0.075,0.131l0.071,0.134l0.066,0.138l0.06,0.14l0.056,0.144l0.05,0.145l0.044,0.147l0.039,0.15l0.033,0.152l0.028,0.152l0.021,0.155l0.016,0.157l0.009,0.158l0.003,0.157l-0.003,0.157l-0.009,0.158l-0.016,0.157l-0.021,0.155l-0.028,0.152l-0.033,0.152l-0.039,0.15l-0.044,0.147l-0.05,0.145l-0.056,0.144l-0.06,0.14l-0.066,0.137l-0.071,0.135l-0.076,0.132l-0.08,0.128l-0.086,0.126l-0.09,0.122l-0.095,0.119l-0.099,0.115l-0.103,0.111l-0.109,0.107l-0.113,0.104l-0.116,0.1l-0.121,0.095l-0.124,0.09l-0.128,0.086l-0.133,0.082l-0.136,0.077l-0.138,0.071l-0.143,0.066l-0.146,0.061l-0.119,0.044l-37.055,12.97l-0.17,0.058l-0.178,0.059l-0.178,0.058l-0.179,0.055l-0.18,0.053l-0.18,0.052l-0.18,0.049l-0.181,0.048l-0.181,0.045l-0.181,0.044l-0.182,0.042l-0.182,0.039l-0.183,0.038l-0.182,0.036l-0.183,0.034l-0.184,0.032l-0.183,0.03l-0.184,0.028l-0.184,0.027l-0.184,0.024l-0.185,0.022l-0.184,0.021l-0.185,0.018l-0.184,0.017l-0.185,0.014l-0.185,0.013l-0.186,0.01l-0.185,0.009l-0.185,0.007l-0.185,0.005l-0.186,0.003l-0.185,0.001l-0.185,-0.001l-0.186,-0.003l-0.185,-0.005l-0.185,-0.007l-0.185,-0.009l-0.186,-0.01l-0.185,-0.013l-0.185,-0.014l-0.184,-0.017l-0.185,-0.018l-0.184,-0.021l-0.185,-0.022l-0.184,-0.024l-0.184,-0.027l-0.184,-0.028l-0.183,-0.03l-0.184,-0.032l-0.183,-0.034l-0.182,-0.036l-0.183,-0.038l-0.182,-0.039l-0.182,-0.042l-0.181,-0.044l-0.181,-0.045l-0.181,-0.048l-0.18,-0.049l-0.18,-0.052l-0.18,-0.053l-0.179,-0.055l-0.178,-0.058l-0.178,-0.059l-0.17,-0.058l-37.055,-12.969l-0.119,-0.045l-0.146,-0.061l-0.143,-0.066l-0.138,-0.071l-0.136,-0.077l-0.133,-0.082l-0.128,-0.086l-0.124,-0.09l-0.121,-0.095l-0.117,-0.1l-0.113,-0.104l-0.107,-0.107l-0.103,-0.111l-0.1,-0.116l-0.095,-0.118l-0.09,-0.122l-0.086,-0.126l-0.08,-0.128l-0.076,-0.132l-0.071,-0.135l-0.066,-0.137l-0.06,-0.14l-0.056,-0.144l-0.05,-0.145l-0.044,-0.147l-0.039,-0.15l-0.033,-0.151l-0.028,-0.154l-0.021,-0.155l-0.016,-0.156l-0.009,-0.157l-0.003,-0.158l0.003,-0.158l0.009,-0.157l0.016,-0.156l0.021,-0.155l0.028,-0.154l0.033,-0.151l0.039,-0.15l0.044,-0.147l0.05,-0.145l0.056,-0.144l0.06,-0.14l0.066,-0.138l0.071,-0.134l0.076,-0.132l0.08,-0.128l0.086,-0.126l0.09,-0.122l0.095,-0.118l0.099,-0.116l0.104,-0.111l0.108,-0.108l0.112,-0.103l0.116,-0.099l0.122,-0.096l0.124,-0.09l0.128,-0.086l0.133,-0.082l0.136,-0.077l0.138,-0.071l0.143,-0.066l0.146,-0.061l0.119,-0.045l37.055,-12.969l0.17,-0.058l0.178,-0.059l0.178,-0.058l0.179,-0.055l0.18,-0.053l0.18,-0.052l0.18,-0.049l0.181,-0.048l0.181,-0.045l0.181,-0.044l0.182,-0.042l0.182,-0.039l0.183,-0.038l0.183,-0.036l0.182,-0.034l0.184,-0.032l0.184,-0.03l0.183,-0.028l0.184,-0.027l0.184,-0.024l0.184,-0.022l0.185,-0.021l0.185,-0.018l0.184,-0.017l0.185,-0.014l0.185,-0.013l0.186,-0.01l0.185,-0.009l0.185,-0.007l0.185,-0.005l0.186,-0.003l0.185,-0.001l0.185,0.001Zm-0.339,3l-0.154,0.003l-0.154,0.004l-0.154,0.005l-0.153,0.008l-0.154,0.008l-0.154,0.011l-0.153,0.012l-0.154,0.014l-0.153,0.015l-0.154,0.017l-0.153,0.018l-0.153,0.021l-0.152,0.021l-0.153,0.024l-0.152,0.025l-0.153,0.026l-0.152,0.028l-0.151,0.03l-0.152,0.032l-0.151,0.033l-0.151,0.034l-0.151,0.037l-0.15,0.038l-0.15,0.039l-0.15,0.041l-0.149,0.043l-0.149,0.044l-0.149,0.046l-0.149,0.048l-0.148,0.049l-0.147,0.051l-37.019,12.956l-0.037,0.014l-0.036,0.015l-0.036,0.017l-0.035,0.018l-0.033,0.019l-0.033,0.02l-0.032,0.021l-0.032,0.023l-0.03,0.024l-0.029,0.025l-0.028,0.026l-0.027,0.026l-0.026,0.028l-0.025,0.029l-0.023,0.03l-0.023,0.03l-0.021,0.032l-0.021,0.032l-0.018,0.033l-0.018,0.034l-0.017,0.034l-0.015,0.035l-0.014,0.036l-0.012,0.036l-0.011,0.037l-0.01,0.037l-0.008,0.038l-0.007,0.038l-0.005,0.039l-0.004,0.039l-0.003,0.039l0,0.04l0,0.04l0.003,0.039l0.004,0.039l0.005,0.039l0.007,0.038l0.008,0.038l0.01,0.037l0.011,0.037l0.012,0.036l0.014,0.036l0.015,0.035l0.017,0.034l0.018,0.034l0.018,0.033l0.021,0.032l0.021,0.032l0.023,0.03l0.023,0.03l0.025,0.029l0.026,0.028l0.027,0.026l0.028,0.026l0.029,0.025l0.03,0.024l0.032,0.023l0.032,0.021l0.033,0.02l0.033,0.019l0.035,0.018l0.036,0.017l0.036,0.015l0.037,0.014l37.019,12.956l0.147,0.051l0.148,0.049l0.149,0.048l0.149,0.046l0.149,0.044l0.149,0.043l0.15,0.041l0.15,0.039l0.15,0.038l0.151,0.037l0.151,0.034l0.151,0.033l0.152,0.032l0.151,0.03l0.152,0.028l0.153,0.026l0.152,0.025l0.153,0.024l0.152,0.021l0.153,0.021l0.153,0.018l0.154,0.017l0.153,0.015l0.154,0.014l0.153,0.012l0.154,0.011l0.154,0.008l0.153,0.008l0.154,0.005l0.154,0.004l0.154,0.003l0.154,0.001l0.154,-0.001l0.154,-0.003l0.154,-0.004l0.154,-0.005l0.153,-0.008l0.154,-0.008l0.154,-0.011l0.153,-0.012l0.154,-0.014l0.153,-0.015l0.154,-0.017l0.153,-0.018l0.153,-0.021l0.152,-0.021l0.153,-0.024l0.152,-0.025l0.153,-0.026l0.152,-0.028l0.151,-0.03l0.152,-0.032l0.151,-0.033l0.151,-0.034l0.151,-0.037l0.15,-0.038l0.15,-0.039l0.15,-0.041l0.149,-0.043l0.149,-0.044l0.149,-0.046l0.149,-0.048l0.148,-0.049l0.147,-0.051l37.019,-12.956l0.037,-0.014l0.036,-0.015l0.036,-0.017l0.035,-0.018l0.033,-0.019l0.033,-0.02l0.032,-0.021l0.032,-0.023l0.03,-0.024l0.029,-0.025l0.028,-0.026l0.027,-0.026l0.026,-0.028l0.025,-0.029l0.023,-0.03l0.023,-0.03l0.021,-0.032l0.021,-0.032l0.018,-0.033l0.018,-0.034l0.017,-0.034l0.015,-0.035l0.014,-0.036l0.012,-0.036l0.011,-0.037l0.01,-0.037l0.008,-0.038l0.007,-0.038l0.005,-0.039l0.004,-0.039l0.003,-0.039l0,-0.04l0,-0.04l-0.003,-0.039l-0.004,-0.039l-0.005,-0.039l-0.007,-0.038l-0.008,-0.038l-0.01,-0.037l-0.011,-0.037l-0.012,-0.036l-0.014,-0.036l-0.015,-0.035l-0.017,-0.034l-0.018,-0.034l-0.018,-0.033l-0.021,-0.032l-0.021,-0.032l-0.023,-0.03l-0.023,-0.03l-0.025,-0.029l-0.026,-0.028l-0.027,-0.026l-0.028,-0.026l-0.029,-0.025l-0.03,-0.024l-0.032,-0.023l-0.032,-0.021l-0.033,-0.02l-0.033,-0.019l-0.035,-0.018l-0.036,-0.017l-0.036,-0.015l-0.037,-0.014l-37.019,-12.956l-0.147,-0.051l-0.148,-0.049l-0.149,-0.048l-0.149,-0.046l-0.149,-0.044l-0.149,-0.043l-0.15,-0.041l-0.15,-0.039l-0.15,-0.038l-0.151,-0.037l-0.151,-0.034l-0.151,-0.033l-0.152,-0.032l-0.151,-0.03l-0.152,-0.028l-0.153,-0.026l-0.152,-0.025l-0.153,-0.024l-0.152,-0.021l-0.153,-0.021l-0.153,-0.018l-0.154,-0.017l-0.153,-0.015l-0.154,-0.014l-0.153,-0.012l-0.154,-0.011l-0.154,-0.008l-0.153,-0.008l-0.154,-0.005l-0.154,-0.004l-0.154,-0.003l-0.154,-0.001l-0.154,0.001Z" style="fill:#e92d05;"/></g></g><g><g><path d="M68.856,50.1c-3.144,-1.101 -6.568,-1.101 -9.712,0c-9.378,3.282 -29.698,10.394 -37.019,12.956c-0.401,0.141 -0.669,0.519 -0.669,0.944c0,0.425 0.268,0.803 0.669,0.944c7.321,2.562 27.641,9.674 37.019,12.956c3.144,1.101 6.568,1.101 9.712,0c9.378,-3.282 29.698,-10.394 37.019,-12.956c0.401,-0.141 0.669,-0.519 0.669,-0.944c0,-0.425 -0.268,-0.803 -0.669,-0.944c-7.321,-2.562 -27.641,-9.674 -37.019,-12.956Z" style="fill:#fff;"/><path d="M64.185,46.275l0.186,0.003l0.185,0.005l0.185,0.007l0.185,0.009l0.186,0.01l0.185,0.013l0.184,0.014l0.185,0.017l0.185,0.018l0.185,0.021l0.184,0.022l0.184,0.024l0.184,0.027l0.184,0.028l0.183,0.03l0.184,0.032l0.183,0.034l0.182,0.036l0.183,0.038l0.182,0.039l0.181,0.042l0.182,0.044l0.181,0.045l0.181,0.048l0.18,0.049l0.18,0.052l0.18,0.053l0.179,0.056l0.178,0.057l0.179,0.059l0.17,0.058l37.054,12.969l0.12,0.045l0.145,0.061l0.143,0.066l0.139,0.072l0.135,0.076l0.132,0.081l0.128,0.086l0.126,0.092l0.12,0.095l0.116,0.098l0.113,0.104l0.109,0.109l0.103,0.111l0.099,0.114l0.095,0.119l0.09,0.122l0.086,0.126l0.081,0.129l0.075,0.131l0.071,0.135l0.066,0.137l0.06,0.14l0.056,0.144l0.05,0.145l0.044,0.147l0.039,0.15l0.033,0.152l0.027,0.152l0.022,0.154l0.016,0.158l0.009,0.158l0.003,0.157l-0.003,0.157l-0.009,0.158l-0.016,0.158l-0.022,0.154l-0.027,0.152l-0.033,0.152l-0.039,0.15l-0.044,0.147l-0.05,0.145l-0.056,0.144l-0.06,0.14l-0.066,0.137l-0.071,0.135l-0.075,0.131l-0.081,0.129l-0.086,0.126l-0.09,0.122l-0.095,0.119l-0.099,0.114l-0.103,0.112l-0.109,0.108l-0.113,0.103l-0.116,0.099l-0.12,0.095l-0.126,0.092l-0.128,0.086l-0.132,0.081l-0.135,0.076l-0.139,0.072l-0.143,0.066l-0.145,0.061l-0.12,0.045l-37.054,12.969l-0.17,0.058l-0.179,0.059l-0.178,0.058l-0.179,0.055l-0.18,0.053l-0.18,0.052l-0.18,0.049l-0.181,0.048l-0.181,0.045l-0.182,0.044l-0.181,0.042l-0.182,0.04l-0.183,0.037l-0.182,0.036l-0.183,0.034l-0.184,0.032l-0.183,0.03l-0.184,0.028l-0.184,0.027l-0.184,0.024l-0.184,0.022l-0.185,0.021l-0.185,0.018l-0.185,0.017l-0.184,0.014l-0.185,0.013l-0.186,0.01l-0.185,0.009l-0.185,0.007l-0.185,0.005l-0.186,0.003l-0.185,0.001l-0.185,-0.001l-0.186,-0.003l-0.185,-0.005l-0.185,-0.007l-0.185,-0.009l-0.186,-0.01l-0.185,-0.013l-0.184,-0.014l-0.185,-0.017l-0.185,-0.018l-0.185,-0.021l-0.184,-0.022l-0.184,-0.024l-0.184,-0.027l-0.184,-0.028l-0.183,-0.03l-0.184,-0.032l-0.183,-0.034l-0.182,-0.036l-0.183,-0.037l-0.182,-0.04l-0.181,-0.042l-0.182,-0.044l-0.181,-0.045l-0.181,-0.048l-0.18,-0.049l-0.18,-0.052l-0.18,-0.053l-0.179,-0.055l-0.178,-0.058l-0.179,-0.059l-0.17,-0.058l-37.054,-12.969l-0.12,-0.045l-0.145,-0.061l-0.143,-0.066l-0.139,-0.072l-0.135,-0.076l-0.132,-0.081l-0.129,-0.086l-0.125,-0.091l-0.12,-0.096l-0.117,-0.099l-0.112,-0.103l-0.108,-0.108l-0.104,-0.111l-0.099,-0.116l-0.095,-0.118l-0.09,-0.122l-0.086,-0.126l-0.08,-0.128l-0.076,-0.132l-0.071,-0.135l-0.066,-0.137l-0.06,-0.14l-0.056,-0.144l-0.05,-0.145l-0.044,-0.147l-0.039,-0.15l-0.033,-0.151l-0.028,-0.154l-0.021,-0.155l-0.016,-0.156l-0.009,-0.157l-0.003,-0.158l0.003,-0.158l0.009,-0.157l0.016,-0.156l0.021,-0.155l0.028,-0.154l0.033,-0.151l0.039,-0.15l0.044,-0.147l0.05,-0.145l0.056,-0.144l0.06,-0.14l0.066,-0.137l0.071,-0.135l0.076,-0.132l0.08,-0.128l0.086,-0.126l0.09,-0.122l0.095,-0.118l0.099,-0.116l0.103,-0.111l0.109,-0.108l0.113,-0.103l0.116,-0.099l0.12,-0.096l0.125,-0.091l0.129,-0.086l0.132,-0.081l0.135,-0.076l0.139,-0.072l0.143,-0.066l0.145,-0.061l0.12,-0.045l37.054,-12.969l0.17,-0.058l0.179,-0.059l0.178,-0.057l0.179,-0.056l0.18,-0.053l0.18,-0.052l0.18,-0.049l0.181,-0.048l0.181,-0.045l0.182,-0.044l0.181,-0.042l0.182,-0.039l0.183,-0.038l0.182,-0.036l0.183,-0.034l0.184,-0.032l0.183,-0.03l0.184,-0.028l0.184,-0.027l0.184,-0.024l0.184,-0.022l0.185,-0.021l0.185,-0.018l0.185,-0.017l0.184,-0.014l0.185,-0.013l0.186,-0.01l0.185,-0.009l0.185,-0.007l0.185,-0.005l0.186,-0.003l0.185,-0.001l0.185,0.001Zm-0.339,3l-0.154,0.003l-0.154,0.004l-0.154,0.005l-0.153,0.008l-0.154,0.008l-0.154,0.011l-0.153,0.012l-0.154,0.014l-0.153,0.015l-0.154,0.017l-0.153,0.018l-0.153,0.021l-0.152,0.021l-0.153,0.024l-0.152,0.025l-0.153,0.026l-0.152,0.028l-0.151,0.03l-0.152,0.032l-0.151,0.033l-0.151,0.034l-0.151,0.037l-0.15,0.038l-0.15,0.039l-0.15,0.041l-0.149,0.043l-0.149,0.044l-0.149,0.046l-0.149,0.048l-0.148,0.049l-0.147,0.051l-37.019,12.956l-0.037,0.014l-0.036,0.015l-0.036,0.017l-0.035,0.018l-0.033,0.019l-0.033,0.02l-0.032,0.021l-0.032,0.023l-0.03,0.024l-0.029,0.025l-0.028,0.026l-0.027,0.026l-0.026,0.028l-0.025,0.029l-0.023,0.03l-0.023,0.03l-0.021,0.032l-0.021,0.032l-0.018,0.033l-0.018,0.034l-0.017,0.034l-0.015,0.035l-0.014,0.036l-0.012,0.036l-0.011,0.037l-0.01,0.037l-0.008,0.038l-0.007,0.038l-0.005,0.039l-0.004,0.039l-0.003,0.039l0,0.04l0,0.04l0.003,0.039l0.004,0.039l0.005,0.039l0.007,0.038l0.008,0.038l0.01,0.037l0.011,0.037l0.012,0.036l0.014,0.036l0.015,0.035l0.017,0.034l0.018,0.034l0.018,0.033l0.021,0.032l0.021,0.032l0.023,0.03l0.023,0.03l0.025,0.029l0.026,0.028l0.027,0.026l0.028,0.026l0.029,0.025l0.03,0.024l0.032,0.023l0.032,0.021l0.033,0.02l0.033,0.019l0.035,0.018l0.036,0.017l0.036,0.015l0.037,0.014l37.019,12.956l0.147,0.051l0.148,0.049l0.149,0.048l0.149,0.046l0.149,0.044l0.149,0.043l0.15,0.041l0.15,0.039l0.15,0.038l0.151,0.037l0.151,0.034l0.151,0.033l0.152,0.032l0.151,0.03l0.152,0.028l0.153,0.026l0.152,0.025l0.153,0.024l0.152,0.021l0.153,0.021l0.153,0.018l0.154,0.017l0.153,0.015l0.154,0.014l0.153,0.012l0.154,0.011l0.154,0.008l0.153,0.008l0.154,0.005l0.154,0.004l0.154,0.003l0.154,0.001l0.154,-0.001l0.154,-0.003l0.154,-0.004l0.154,-0.005l0.153,-0.008l0.154,-0.008l0.154,-0.011l0.153,-0.012l0.154,-0.014l0.153,-0.015l0.154,-0.017l0.153,-0.018l0.153,-0.021l0.152,-0.021l0.153,-0.024l0.152,-0.025l0.153,-0.026l0.152,-0.028l0.151,-0.03l0.152,-0.032l0.151,-0.033l0.151,-0.034l0.151,-0.037l0.15,-0.038l0.15,-0.039l0.15,-0.041l0.149,-0.043l0.149,-0.044l0.149,-0.046l0.149,-0.048l0.148,-0.049l0.147,-0.051l37.019,-12.956l0.037,-0.014l0.036,-0.015l0.036,-0.017l0.035,-0.018l0.033,-0.019l0.033,-0.02l0.032,-0.021l0.032,-0.023l0.03,-0.024l0.029,-0.025l0.028,-0.026l0.027,-0.026l0.026,-0.028l0.025,-0.029l0.023,-0.03l0.023,-0.03l0.021,-0.032l0.021,-0.032l0.018,-0.033l0.018,-0.034l0.017,-0.034l0.015,-0.035l0.014,-0.036l0.012,-0.036l0.011,-0.037l0.01,-0.037l0.008,-0.038l0.007,-0.038l0.005,-0.039l0.004,-0.039l0.003,-0.039l0,-0.04l0,-0.04l-0.003,-0.039l-0.004,-0.039l-0.005,-0.039l-0.007,-0.038l-0.008,-0.038l-0.01,-0.037l-0.011,-0.037l-0.012,-0.036l-0.014,-0.036l-0.015,-0.035l-0.017,-0.034l-0.018,-0.034l-0.018,-0.033l-0.021,-0.032l-0.021,-0.032l-0.023,-0.03l-0.023,-0.03l-0.025,-0.029l-0.026,-0.028l-0.027,-0.026l-0.028,-0.026l-0.029,-0.025l-0.03,-0.024l-0.032,-0.023l-0.032,-0.021l-0.033,-0.02l-0.033,-0.019l-0.035,-0.018l-0.036,-0.017l-0.036,-0.015l-0.037,-0.014l-37.019,-12.956l-0.147,-0.051l-0.148,-0.049l-0.149,-0.048l-0.149,-0.046l-0.149,-0.044l-0.149,-0.043l-0.15,-0.041l-0.15,-0.039l-0.15,-0.038l-0.151,-0.037l-0.151,-0.034l-0.151,-0.033l-0.152,-0.032l-0.151,-0.03l-0.152,-0.028l-0.153,-0.026l-0.152,-0.025l-0.153,-0.024l-0.152,-0.021l-0.153,-0.021l-0.153,-0.018l-0.154,-0.017l-0.153,-0.015l-0.154,-0.014l-0.153,-0.012l-0.154,-0.011l-0.154,-0.008l-0.153,-0.008l-0.154,-0.005l-0.154,-0.004l-0.154,-0.003l-0.154,-0.001l-0.154,0.001Z" style="fill:#e92d05;"/></g></g><g><g><path d="M68.856,37.7c-3.144,-1.101 -6.568,-1.101 -9.712,0c-9.378,3.282 -29.698,10.394 -37.019,12.956c-0.401,0.141 -0.669,0.519 -0.669,0.944c0,0.425 0.268,0.803 0.669,0.944c7.321,2.562 27.641,9.674 37.019,12.956c3.144,1.101 6.568,1.101 9.712,0c9.378,-3.282 29.698,-10.394 37.019,-12.956c0.401,-0.141 0.669,-0.519 0.669,-0.944c0,-0.425 -0.268,-0.803 -0.669,-0.944c-7.321,-2.562 -27.641,-9.674 -37.019,-12.956Z" style="fill:#fff;"/><path d="M64.185,33.875l0.186,0.003l0.185,0.005l0.185,0.007l0.185,0.009l0.186,0.01l0.185,0.013l0.185,0.014l0.184,0.017l0.185,0.018l0.185,0.021l0.184,0.022l0.184,0.024l0.184,0.027l0.184,0.028l0.183,0.03l0.184,0.032l0.182,0.034l0.183,0.036l0.183,0.038l0.182,0.039l0.182,0.042l0.181,0.044l0.181,0.045l0.181,0.048l0.18,0.049l0.18,0.052l0.18,0.053l0.179,0.055l0.178,0.058l0.179,0.059l0.17,0.058l37.053,12.969l0.12,0.045l0.147,0.061l0.142,0.066l0.138,0.071l0.136,0.077l0.133,0.082l0.128,0.086l0.124,0.09l0.121,0.095l0.116,0.1l0.113,0.104l0.109,0.107l0.103,0.111l0.099,0.115l0.095,0.119l0.09,0.122l0.086,0.126l0.08,0.128l0.076,0.132l0.071,0.135l0.066,0.137l0.06,0.14l0.056,0.144l0.05,0.145l0.044,0.147l0.039,0.15l0.033,0.152l0.028,0.152l0.021,0.154l0.016,0.158l0.009,0.158l0.003,0.157l-0.003,0.157l-0.009,0.158l-0.016,0.157l-0.021,0.155l-0.028,0.152l-0.033,0.152l-0.039,0.15l-0.044,0.147l-0.05,0.145l-0.056,0.144l-0.06,0.14l-0.066,0.138l-0.071,0.134l-0.075,0.131l-0.081,0.129l-0.086,0.126l-0.09,0.122l-0.095,0.119l-0.099,0.114l-0.103,0.112l-0.109,0.108l-0.113,0.104l-0.116,0.098l-0.12,0.095l-0.125,0.091l-0.129,0.087l-0.132,0.081l-0.135,0.077l-0.139,0.071l-0.143,0.066l-0.146,0.061l-0.119,0.045l-37.054,12.969l-0.17,0.058l-0.179,0.059l-0.178,0.058l-0.179,0.055l-0.18,0.053l-0.18,0.052l-0.18,0.049l-0.181,0.048l-0.181,0.045l-0.181,0.044l-0.182,0.042l-0.182,0.039l-0.183,0.038l-0.183,0.036l-0.182,0.034l-0.184,0.032l-0.184,0.03l-0.183,0.028l-0.184,0.027l-0.184,0.024l-0.184,0.022l-0.185,0.021l-0.185,0.018l-0.184,0.017l-0.185,0.014l-0.185,0.013l-0.186,0.01l-0.185,0.009l-0.185,0.007l-0.185,0.005l-0.186,0.003l-0.185,0.001l-0.185,-0.001l-0.186,-0.003l-0.185,-0.005l-0.185,-0.007l-0.185,-0.009l-0.186,-0.01l-0.185,-0.013l-0.185,-0.014l-0.184,-0.017l-0.185,-0.018l-0.185,-0.021l-0.184,-0.022l-0.184,-0.024l-0.184,-0.027l-0.183,-0.028l-0.184,-0.03l-0.184,-0.032l-0.182,-0.034l-0.183,-0.036l-0.183,-0.038l-0.182,-0.039l-0.182,-0.042l-0.181,-0.044l-0.181,-0.045l-0.181,-0.048l-0.18,-0.049l-0.18,-0.052l-0.18,-0.053l-0.179,-0.055l-0.178,-0.058l-0.179,-0.059l-0.17,-0.058l-37.054,-12.969l-0.119,-0.045l-0.146,-0.061l-0.143,-0.066l-0.139,-0.072l-0.135,-0.076l-0.132,-0.081l-0.129,-0.087l-0.125,-0.09l-0.12,-0.096l-0.116,-0.099l-0.113,-0.103l-0.108,-0.108l-0.104,-0.111l-0.099,-0.116l-0.095,-0.118l-0.09,-0.122l-0.086,-0.126l-0.08,-0.128l-0.076,-0.132l-0.071,-0.134l-0.066,-0.138l-0.06,-0.14l-0.056,-0.144l-0.05,-0.145l-0.044,-0.147l-0.039,-0.15l-0.033,-0.151l-0.028,-0.154l-0.021,-0.155l-0.016,-0.156l-0.009,-0.157l-0.003,-0.158l0.003,-0.158l0.009,-0.157l0.016,-0.156l0.021,-0.155l0.028,-0.154l0.033,-0.151l0.039,-0.15l0.044,-0.147l0.05,-0.145l0.056,-0.144l0.06,-0.14l0.066,-0.137l0.071,-0.135l0.076,-0.132l0.081,-0.129l0.085,-0.125l0.09,-0.122l0.095,-0.118l0.1,-0.116l0.103,-0.111l0.107,-0.107l0.113,-0.104l0.117,-0.1l0.121,-0.095l0.124,-0.09l0.128,-0.086l0.133,-0.082l0.136,-0.077l0.138,-0.071l0.142,-0.066l0.147,-0.061l0.12,-0.045l37.053,-12.969l0.17,-0.058l0.179,-0.059l0.178,-0.058l0.179,-0.055l0.18,-0.053l0.18,-0.052l0.18,-0.049l0.181,-0.048l0.181,-0.045l0.181,-0.044l0.182,-0.042l0.182,-0.039l0.183,-0.038l0.183,-0.036l0.182,-0.034l0.184,-0.032l0.183,-0.03l0.184,-0.028l0.184,-0.027l0.184,-0.024l0.184,-0.022l0.185,-0.021l0.185,-0.018l0.184,-0.017l0.185,-0.014l0.185,-0.013l0.186,-0.01l0.185,-0.009l0.185,-0.007l0.185,-0.005l0.186,-0.003l0.185,-0.001l0.185,0.001Zm-0.339,3l-0.154,0.003l-0.154,0.004l-0.154,0.005l-0.153,0.008l-0.154,0.008l-0.154,0.011l-0.153,0.012l-0.154,0.014l-0.153,0.015l-0.154,0.017l-0.153,0.018l-0.153,0.021l-0.152,0.021l-0.153,0.024l-0.152,0.025l-0.153,0.026l-0.152,0.028l-0.151,0.03l-0.152,0.032l-0.151,0.033l-0.151,0.034l-0.151,0.037l-0.15,0.038l-0.15,0.039l-0.15,0.041l-0.149,0.043l-0.149,0.044l-0.149,0.046l-0.149,0.048l-0.148,0.049l-0.147,0.051l-37.019,12.956l-0.037,0.014l-0.036,0.015l-0.036,0.017l-0.035,0.018l-0.033,0.019l-0.033,0.02l-0.032,0.021l-0.032,0.023l-0.03,0.024l-0.029,0.025l-0.028,0.026l-0.027,0.026l-0.026,0.028l-0.025,0.029l-0.023,0.03l-0.023,0.03l-0.021,0.032l-0.021,0.032l-0.018,0.033l-0.018,0.034l-0.017,0.034l-0.015,0.035l-0.014,0.036l-0.012,0.036l-0.011,0.037l-0.01,0.037l-0.008,0.038l-0.007,0.038l-0.005,0.039l-0.004,0.039l-0.003,0.039l0,0.04l0,0.04l0.003,0.039l0.004,0.039l0.005,0.039l0.007,0.038l0.008,0.038l0.01,0.037l0.011,0.037l0.012,0.036l0.014,0.036l0.015,0.035l0.017,0.034l0.018,0.034l0.018,0.033l0.021,0.032l0.021,0.032l0.023,0.03l0.023,0.03l0.025,0.029l0.026,0.028l0.027,0.026l0.028,0.026l0.029,0.025l0.03,0.024l0.032,0.023l0.032,0.021l0.033,0.02l0.033,0.019l0.035,0.018l0.036,0.017l0.036,0.015l0.037,0.014l37.019,12.956l0.147,0.051l0.148,0.049l0.149,0.048l0.149,0.046l0.149,0.044l0.149,0.043l0.15,0.041l0.15,0.039l0.15,0.038l0.151,0.037l0.151,0.034l0.151,0.033l0.152,0.032l0.151,0.03l0.152,0.028l0.153,0.026l0.152,0.025l0.153,0.024l0.152,0.021l0.153,0.021l0.153,0.018l0.154,0.017l0.153,0.015l0.154,0.014l0.153,0.012l0.154,0.011l0.154,0.008l0.153,0.008l0.154,0.005l0.154,0.004l0.154,0.003l0.154,0.001l0.154,-0.001l0.154,-0.003l0.154,-0.004l0.154,-0.005l0.153,-0.008l0.154,-0.008l0.154,-0.011l0.153,-0.012l0.154,-0.014l0.153,-0.015l0.154,-0.017l0.153,-0.018l0.153,-0.021l0.152,-0.021l0.153,-0.024l0.152,-0.025l0.153,-0.026l0.152,-0.028l0.151,-0.03l0.152,-0.032l0.151,-0.033l0.151,-0.034l0.151,-0.037l0.15,-0.038l0.15,-0.039l0.15,-0.041l0.149,-0.043l0.149,-0.044l0.149,-0.046l0.149,-0.048l0.148,-0.049l0.147,-0.051l37.019,-12.956l0.037,-0.014l0.036,-0.015l0.036,-0.017l0.035,-0.018l0.033,-0.019l0.033,-0.02l0.032,-0.021l0.032,-0.023l0.03,-0.024l0.029,-0.025l0.028,-0.026l0.027,-0.026l0.026,-0.028l0.025,-0.029l0.023,-0.03l0.023,-0.03l0.021,-0.032l0.021,-0.032l0.018,-0.033l0.018,-0.034l0.017,-0.034l0.015,-0.035l0.014,-0.036l0.012,-0.036l0.011,-0.037l0.01,-0.037l0.008,-0.038l0.007,-0.038l0.005,-0.039l0.004,-0.039l0.003,-0.039l0,-0.04l0,-0.04l-0.003,-0.039l-0.004,-0.039l-0.005,-0.039l-0.007,-0.038l-0.008,-0.038l-0.01,-0.037l-0.011,-0.037l-0.012,-0.036l-0.014,-0.036l-0.015,-0.035l-0.017,-0.034l-0.018,-0.034l-0.018,-0.033l-0.021,-0.032l-0.021,-0.032l-0.023,-0.03l-0.023,-0.03l-0.025,-0.029l-0.026,-0.028l-0.027,-0.026l-0.028,-0.026l-0.029,-0.025l-0.03,-0.024l-0.032,-0.023l-0.032,-0.021l-0.033,-0.02l-0.033,-0.019l-0.035,-0.018l-0.036,-0.017l-0.036,-0.015l-0.037,-0.014l-37.019,-12.956l-0.147,-0.051l-0.148,-0.049l-0.149,-0.048l-0.149,-0.046l-0.149,-0.044l-0.149,-0.043l-0.15,-0.041l-0.15,-0.039l-0.15,-0.038l-0.151,-0.037l-0.151,-0.034l-0.151,-0.033l-0.152,-0.032l-0.151,-0.03l-0.152,-0.028l-0.153,-0.026l-0.152,-0.025l-0.153,-0.024l-0.152,-0.021l-0.153,-0.021l-0.153,-0.018l-0.154,-0.017l-0.153,-0.015l-0.154,-0.014l-0.153,-0.012l-0.154,-0.011l-0.154,-0.008l-0.153,-0.008l-0.154,-0.005l-0.154,-0.004l-0.154,-0.003l-0.154,-0.001l-0.154,0.001Z" style="fill:#e92d05;"/></g></g></g></g></svg>