<?xml version="1.0" encoding="UTF-8" standalone="no"?><!DOCTYPE svg PUBLIC "-//W3C//DTD SVG 1.1//EN" "http://www.w3.org/Graphics/SVG/1.1/DTD/svg11.dtd"><svg width="100%" height="100%" viewBox="0 0 128 129" version="1.1" xmlns="http://www.w3.org/2000/svg" xmlns:xlink="http://www.w3.org/1999/xlink" xml:space="preserve" style="fill-rule:evenodd;clip-rule:evenodd;stroke-linejoin:round;stroke-miterlimit:1.41421;"><g id="About"><g><circle cx="64" cy="64.035" r="64" style="fill:#c1c1c1;"/></g><path d="M69.498,86.998c0,1.797 0.036,3.307 0.108,4.528c0.072,1.222 0.324,2.229 0.755,3.019c0.431,0.791 1.096,1.402 1.994,1.833c0.899,0.431 2.175,0.755 3.828,0.97c0.431,0.072 0.754,0.27 0.97,0.593c0.216,0.324 0.323,0.701 0.323,1.132c0,0.36 -0.107,0.701 -0.323,1.024c-0.216,0.324 -0.539,0.486 -0.97,0.486c-1.294,0 -2.983,-0.126 -5.067,-0.378c-2.085,-0.251 -4.205,-0.377 -6.361,-0.377c-2.3,0 -4.546,0.126 -6.739,0.377c-2.192,0.252 -4.294,0.378 -6.306,0.378c-0.36,0 -0.647,-0.162 -0.863,-0.486c-0.216,-0.323 -0.323,-0.664 -0.323,-1.024c0,-0.431 0.107,-0.808 0.323,-1.132c0.216,-0.323 0.539,-0.521 0.97,-0.593c1.869,-0.215 3.325,-0.539 4.367,-0.97c1.042,-0.431 1.797,-1.024 2.264,-1.779c0.467,-0.755 0.736,-1.689 0.808,-2.803c0.072,-1.114 0.108,-2.498 0.108,-4.151l0,-17.357c0,-3.091 -0.072,-5.571 -0.215,-7.439c-0.144,-1.869 -0.468,-3.289 -0.971,-4.259c-0.503,-0.97 -1.258,-1.635 -2.264,-1.994c-1.006,-0.36 -2.372,-0.647 -4.097,-0.863c-0.431,0 -0.754,-0.18 -0.97,-0.539c-0.216,-0.359 -0.323,-0.719 -0.323,-1.078c0,-0.359 0.107,-0.719 0.323,-1.078c0.216,-0.359 0.539,-0.539 0.97,-0.539c0.719,-0.072 1.6,-0.144 2.642,-0.216c1.042,-0.072 2.138,-0.162 3.288,-0.269c1.15,-0.108 2.318,-0.252 3.504,-0.432c1.186,-0.179 2.246,-0.377 3.18,-0.593c0.791,-0.143 1.42,-0.305 1.887,-0.485c0.467,-0.179 0.844,-0.269 1.132,-0.269c0.862,0 1.419,0.251 1.671,0.754c0.252,0.504 0.377,0.971 0.377,1.402l0,34.607Zm-5.714,-47.76c-1.796,0 -3.342,-0.557 -4.635,-1.671c-1.294,-1.114 -1.941,-2.498 -1.941,-4.151c0,-1.653 0.611,-3.054 1.833,-4.204c1.222,-1.15 2.731,-1.725 4.528,-1.725c1.725,0 3.144,0.593 4.258,1.779c1.114,1.185 1.671,2.605 1.671,4.258c0,1.581 -0.539,2.929 -1.617,4.043c-1.078,1.114 -2.444,1.671 -4.097,1.671Z" style="fill:#fff;fill-rule:nonzero;"/><text x="13.023px" y="75.437px" style="font-family:'Futura-Medium', 'Futura', sans-serif;font-weight:500;font-size:48px;fill:#e93f33;">soon</text></g></svg>