<?xml version="1.0" encoding="UTF-8" standalone="no"?><!DOCTYPE svg PUBLIC "-//W3C//DTD SVG 1.1//EN" "http://www.w3.org/Graphics/SVG/1.1/DTD/svg11.dtd"><svg width="100%" height="100%" viewBox="0 0 128 128" version="1.1" xmlns="http://www.w3.org/2000/svg" xmlns:xlink="http://www.w3.org/1999/xlink" xml:space="preserve" style="fill-rule:evenodd;clip-rule:evenodd;stroke-linejoin:round;stroke-miterlimit:1.41421;"><g id="Blog"><g><circle cx="64" cy="64" r="64" style="fill:#c1c1c1;"/></g><path d="M68.532,104l-3.797,6.312c-0.169,0.281 -0.443,0.447 -0.735,0.447c-0.292,0 -0.566,-0.166 -0.735,-0.447l-3.797,-6.312l9.064,0Zm1.805,-3l-12.674,0l-2.569,-4.271c-1.362,-2.264 -2.094,-4.97 -2.094,-7.744l0,-43.985l22,0l0,43.985c0,2.774 -0.732,5.48 -2.094,7.744l-2.569,4.271Zm-17.337,-67l22,0l0,8l-22,0l0,-8Zm0,-3l0,-0.823c0,-7.14 4.929,-12.936 11,-12.936c6.071,0 11,5.796 11,12.936l0,0.823l-22,0Z" style="fill:#fff;"/><text x="13.023px" y="75.402px" style="font-family:'Futura-Medium', 'Futura', sans-serif;font-weight:500;font-size:48px;fill:#e93f33;">soon</text></g></svg>