<?xml version="1.0" encoding="UTF-8" standalone="no"?><!DOCTYPE svg PUBLIC "-//W3C//DTD SVG 1.1//EN" "http://www.w3.org/Graphics/SVG/1.1/DTD/svg11.dtd"><svg width="100%" height="100%" viewBox="0 0 128 128" version="1.1" xmlns="http://www.w3.org/2000/svg" xmlns:xlink="http://www.w3.org/1999/xlink" xml:space="preserve" style="fill-rule:evenodd;clip-rule:evenodd;stroke-linejoin:round;stroke-miterlimit:1.41421;"><g id="Menu"><g><circle id="button" cx="64" cy="64" r="64" style="fill:#fc8d08;"/></g><g><path d="M100,87.265c0,-2.613 -2.122,-4.734 -4.735,-4.734l-62.53,0c-2.613,0 -4.735,2.121 -4.735,4.734c0,2.613 2.122,4.735 4.735,4.735l62.53,0c2.613,0 4.735,-2.122 4.735,-4.735Z" style="fill:#fff;"/><path d="M100,64c0,-2.613 -2.122,-4.735 -4.735,-4.735l-62.53,0c-2.613,0 -4.735,2.122 -4.735,4.735c0,2.613 2.122,4.735 4.735,4.735l62.53,0c2.613,0 4.735,-2.122 4.735,-4.735Z" style="fill:#fff;"/><path d="M100,40.735c0,-2.613 -2.122,-4.735 -4.735,-4.735l-62.53,0c-2.613,0 -4.735,2.122 -4.735,4.735c0,2.613 2.122,4.734 4.735,4.734l62.53,0c2.613,0 4.735,-2.121 4.735,-4.734Z" style="fill:#fff;"/></g></g></svg>