<?xml version="1.0" encoding="UTF-8" standalone="no"?><!DOCTYPE svg PUBLIC "-//W3C//DTD SVG 1.1//EN" "http://www.w3.org/Graphics/SVG/1.1/DTD/svg11.dtd"><svg width="100%" height="100%" viewBox="0 0 129 129" version="1.1" xmlns="http://www.w3.org/2000/svg" xmlns:xlink="http://www.w3.org/1999/xlink" xml:space="preserve" style="fill-rule:evenodd;clip-rule:evenodd;stroke-linejoin:round;stroke-miterlimit:1.41421;"><path d="M64.925,0.952c35.323,0 64,28.677 64,64c0,35.322 -28.677,64 -64,64c-35.322,0 -64,-28.678 -64,-64c0,-35.323 28.678,-64 64,-64Zm24.209,20.746c1.839,-0.504 2.315,-1.646 2.295,-2.241c-0.027,-0.757 -0.721,-1.184 -1.775,-1.498c-0.796,-0.237 -1.483,-0.392 -2.783,-0.382c0,0 0,0 0,0c-2.017,0.016 -5.742,0.668 -9.214,2.003c-3.027,1.247 -6.263,3.559 -7.612,5.476c-2.235,3.174 -4.019,9.235 -4.569,14.376c-0.118,1.101 -0.105,2.272 -0.105,2.717c0,0.623 0.022,1.447 0.067,2.471c0.044,1.024 0.117,2.23 0.244,3.652c0.131,1.459 0.468,3.181 0.69,5.228c0.112,1.024 0.755,4.544 0.971,8.111c0.215,3.566 0.11,6.856 -0.103,8.449c-0.933,6.986 -3.564,10.68 -7.55,17.141c-3.884,6.295 -7.234,10.443 -9.132,11.819c-0.442,0.321 -1.013,0.355 -0.846,-0.339c0.084,-0.349 4.263,-7.121 6.044,-10.593c2.047,-4.006 3.717,-9.211 4.667,-13.262c0.905,-3.862 0.407,-10.642 0.407,-11.176c0,-0.534 -0.022,-1.135 -0.066,-1.803c-0.045,-0.668 -0.112,-1.625 -0.201,-2.871c-0.089,-0.98 -0.156,-1.87 -0.2,-2.671c-0.045,-0.801 -0.468,-7.078 -0.468,-11.351c0,-1.158 0.083,-2.335 0.134,-3.539c0.281,-6.689 1.525,-10.224 1.736,-11.018c0.848,-3.189 2.237,-5.001 3.552,-6.385c2.24,-2.36 5.144,-4.736 5.251,-4.978c0.186,-0.42 -0.238,-0.654 -0.523,-0.656c-0.441,-0.002 -1.525,0.843 -3.199,1.512c-0.798,0.319 -2.299,0.956 -3.702,1.405c-1.36,0.436 -2.97,0.666 -4.352,0.666c-0.718,0 -3.797,-0.158 -5.638,-0.585c-2.954,-0.686 -8.146,-3.218 -13.087,-3.297c-1.87,-0.03 -3.008,0.299 -3.008,0.299c-3.739,0.713 -7.033,2.538 -9.882,5.476c-2.849,2.849 -4.317,7.813 -4.361,9.731c-0.009,0.381 0.007,0.889 0.448,1.108c0.693,0.344 1.23,-0.163 1.514,-0.499c0.302,-0.358 0.74,-1.123 1.088,-1.773c0.309,-0.577 0.909,-1.368 1.351,-1.958c0.304,-0.406 1.127,-1.288 2.137,-1.584c1.558,-0.456 3.432,-0.218 3.432,-0.218c0.307,-0.045 3.451,0.501 4.553,0.861c1.037,0.34 2.051,0.683 3.126,1.009c0.166,0.05 1.233,0.297 2.277,0.414c1.11,0.126 2.197,0.12 2.197,0.12c1.246,0 1.606,-0.045 2.403,-0.134c0.802,-0.089 1.619,-0.191 2.404,-0.4c1.002,-0.267 2.426,-0.757 3.606,-1.202c1.176,-0.444 2.849,-1.113 3.472,-1.469c-6.944,6.944 -8.021,13.354 -8.414,19.736c-0.327,5.302 0.389,10.421 0.389,10.421c0,0 -2.95,-0.536 -4.738,-0.669c-2.757,-0.206 -5.666,0.203 -7.002,0.826c-2.136,0.891 -3.828,2.36 -5.074,4.407c0,0 2.716,-0.146 3.925,-0.121c1.023,0.021 3.117,0.406 5.01,1.218c1.784,0.765 3.561,2.009 4.453,3.078c1.556,1.865 2.544,3.348 2.544,5.039l0.093,1.871c0,0 -1.34,-0.248 -2.018,-0.301c-0.846,-0.067 -2.043,-0.205 -3.057,-0.1c-1.132,0.117 -2.563,0.305 -3.739,0.801c-1.325,0.559 -2.27,1.202 -2.804,2.003c0.356,0 1.873,0.222 2.14,0.311c0.535,0.178 1.834,0.42 3.448,1.363c1.599,0.935 1.821,1.051 3.424,2.386c0.202,0.253 1.14,1.294 1.715,2.278c0.436,0.748 0.604,1.519 0.758,1.942c0,0.178 0.154,0.702 0.267,1.603c0.095,0.768 0.103,1.68 0.058,2.081c-0.044,0.401 -0.103,1.168 -0.192,1.791c0,0.087 -0.149,1 -0.396,1.861c-0.263,0.918 -0.626,1.787 -0.672,1.879c-0.089,0.178 -0.223,0.489 -0.401,0.934c-0.356,0.713 -0.41,0.86 -1.068,2.004c-1.674,2.906 -12.184,10.924 -12.51,12.905c-0.191,1.158 0.776,1.051 1.835,0.759c1.64,-0.452 2.551,-1.156 4.198,-1.779c1.647,-0.623 3.583,-1.291 5.809,-2.003c4.808,-1.514 8.458,-2.404 10.951,-2.671c0.979,-0.178 1.869,-0.289 2.67,-0.334c0.802,-0.044 1.425,-0.111 1.87,-0.2c0.979,-0.089 1.87,-0.156 2.671,-0.201c0.801,-0.044 1.424,-0.066 1.87,-0.066c0,0 3.118,0.033 5.208,0.267c9.472,1.061 20.689,8.711 21.147,9.057c0.128,0.096 0.313,0.136 0.429,0.016c0.57,-0.592 10.977,-10.58 14.362,-13.892c0.66,-0.646 1.041,-0.932 1.054,-1.057c0.016,-0.156 -0.619,-0.501 -1.278,-0.953c-0.639,-0.437 -1.288,-0.928 -1.393,-0.917c-0.086,0.009 -0.287,0.389 -0.608,0.884c-0.261,0.401 -0.601,0.878 -1.021,1.293c-0.431,0.425 -1.304,1.221 -2.073,1.324c-0.769,0.102 -1.434,-0.488 -1.875,-0.716c-0.337,-0.175 -2.352,-1.77 -3.053,-2.214c-0.456,-0.289 -2.031,-1.316 -3.675,-1.945c-1.737,-0.665 -3.538,-1.072 -3.721,-1.163c-2.136,-0.534 -4.006,-0.89 -5.608,-1.068c-1.603,-0.179 -3.339,-0.268 -5.209,-0.268c-0.534,0 -1.202,0.023 -2.003,0.067c-0.396,0.022 -2.636,0.171 -4.988,0.588c-2.402,0.426 -4.925,1.123 -6.163,1.415c-2.085,0.493 -5.607,1.712 -5.903,1.823c-0.233,0.088 -0.373,-0.14 -0.307,-0.287c0.163,-0.36 11.085,-10.283 11.085,-10.283c3.472,-3.205 6.054,-7.122 7.745,-11.752c1.87,-5.074 2.716,-9.882 2.537,-14.422c0,0 -2.203,-21.887 -1.201,-28.178c1.002,-6.297 8.051,-8.078 10.809,-8.833Z" style="fill:#fff;"/></svg>