<?xml version="1.0" encoding="UTF-8" standalone="no"?><!DOCTYPE svg PUBLIC "-//W3C//DTD SVG 1.1//EN" "http://www.w3.org/Graphics/SVG/1.1/DTD/svg11.dtd"><svg width="100%" height="100%" viewBox="0 0 129 128" version="1.1" xmlns="http://www.w3.org/2000/svg" xmlns:xlink="http://www.w3.org/1999/xlink" xml:space="preserve" style="fill-rule:evenodd;clip-rule:evenodd;stroke-linejoin:round;stroke-miterlimit:1.41421;"><path d="M64.925,0c35.323,0 64,28.677 64,64c0,35.323 -28.677,64 -64,64c-35.322,0 -64,-28.677 -64,-64c0,-35.323 28.678,-64 64,-64Zm24.736,95c8.555,0 15.5,-6.945 15.5,-15.5l0,-31c0,-1.813 -0.312,-3.553 -0.885,-5.17l-36.799,17.833c-1.597,0.774 -3.461,0.774 -5.058,0l-36.84,-17.846c-0.575,1.621 -0.889,3.366 -0.889,5.183l0,31c0,8.555 6.945,15.5 15.5,15.5l49.471,0Zm0,-62c3.416,0 6.575,1.108 9.139,2.983l-31.68,15.352c-1.377,0.667 -2.984,0.667 -4.361,0l-31.697,-15.36c2.561,-1.871 5.717,-2.975 9.128,-2.975l49.471,0Z" style="fill:#fff;"/></svg>