<?xml version="1.0" encoding="UTF-8" standalone="no"?><!DOCTYPE svg PUBLIC "-//W3C//DTD SVG 1.1//EN" "http://www.w3.org/Graphics/SVG/1.1/DTD/svg11.dtd"><svg width="100%" height="100%" viewBox="0 0 128 128" version="1.1" xmlns="http://www.w3.org/2000/svg" xmlns:xlink="http://www.w3.org/1999/xlink" xml:space="preserve" style="fill-rule:evenodd;clip-rule:evenodd;stroke-linejoin:round;stroke-miterlimit:1.41421;"><clipPath id="_clip1"><rect x="7.691" y="-128" width="112.619" height="128"/></clipPath><g clip-path="url(#_clip1)"></g><path d="M-82.477,126.34c-27.725,-7.971 -45.523,-32.244 -45.523,-61.014c0,-35.165 28.677,-63.714 64,-63.714c35.323,0 64,28.549 64,63.714c0,28.773 -22.445,55.883 -45.531,61.016c-0.575,0.128 -2.71,-0.96 -2.759,-2.539c-0.117,-3.796 0,-20.947 0,-20.947c0,0 -0.533,-3.741 -1.24,-5.237c-0.682,-1.445 -2.999,-3.74 -2.999,-3.74c0,0 7.495,-0.885 10.972,-2.244c5.247,-2.051 10.682,-5.736 13.716,-10.474c3.034,-4.738 4.199,-11.734 4.239,-18.204c0.075,-12.186 -6.234,-17.705 -6.234,-17.705c0,0 0.992,-5.692 0.997,-8.479c0.01,-4.906 -1.995,-8.728 -1.995,-8.728c0,0 -2.005,-0.884 -8.977,1.746c-4.289,1.617 -8.728,4.738 -8.728,4.738c0,0 -10.266,-2.203 -15.71,-2.245c-5.444,-0.041 -15.96,2.245 -15.96,2.245c0,0 -5.006,-3 -8.229,-4.489c-5.283,-2.441 -9.476,-1.995 -9.476,-1.995c0,0 -1.939,5.386 -1.995,8.229c-0.107,5.348 1.496,8.728 1.496,8.728c0,0 -6.936,6.047 -6.484,18.454c0.434,11.899 3.273,18.99 11.721,24.937c6.667,4.694 16.957,5.486 16.957,5.486c0,0 -1.944,2.542 -2.602,3.938c-0.665,1.413 -1.139,4.79 -1.139,4.79c0,0 -5.391,1.296 -7.98,1.247c-2.615,-0.05 -5.707,-1.294 -7.73,-2.993c-2.078,-1.745 -3.2,-5.07 -4.988,-6.733c-1.497,-1.392 -3.74,-3.034 -5.486,-3.491c-1.608,-0.421 -5.192,-0.589 -5.236,0.499c-0.027,0.648 0.917,1.88 2.04,2.854c1.172,1.016 1.61,0.593 3.196,2.383c1.93,2.177 3.712,5.454 5.237,8.728c1.473,3.162 4.378,5.232 7.481,5.984c5.652,1.37 13.217,0 13.217,0c0,0 0.046,10.328 0,12.718c-0.031,1.597 -1.178,2.85 -2.268,2.537Z" style="fill:#fff;"/><path d="M64,0c35.323,0 64,28.677 64,64c0,35.323 -28.677,64 -64,64c-35.323,0 -64,-28.677 -64,-64c0,-35.323 28.677,-64 64,-64Zm-23.829,48.549l-18.633,0l0,55.9l18.633,0l0,-55.9Zm10.033,0l0,55.9l18.633,0c0.001,-0.04 0.106,-25.039 0,-32.25c-0.06,-4.124 3.414,-10.4 10.034,-10.392c6.83,0.009 9.283,6.254 9.316,9.675c0.079,7.896 0,32.967 0,32.967l18.992,0c0,-0.046 0,-28.494 -0.358,-35.834c-0.512,-10.486 -6.047,-17.331 -12.9,-20.066c-4.836,-1.93 -13.372,-1.53 -17.2,0.358c-6.152,3.035 -7.884,7.525 -7.884,7.525l0,-7.883l-18.633,0Zm-19.529,-27.233c5.439,0 9.854,4.415 9.854,9.854c0,5.438 -4.415,9.854 -9.854,9.854c-5.439,0 -9.854,-4.416 -9.854,-9.854c0,-5.439 4.415,-9.854 9.854,-9.854Z" style="fill:#fff;"/><path d="M178.607,126.957c-28.902,-6.164 -50.607,-31.864 -50.607,-62.594c0,-35.322 28.677,-64 64,-64c35.323,0 64,28.678 64,64c0,32.038 -23.592,58.609 -54.336,63.274l0,-59.774l16.199,0l2.309,-20.634l-18.97,0l0,-11.546c0,0 -0.009,-3.999 1.2,-5.618c1.508,-1.734 4.816,-1.771 4.838,-1.771l12.932,0l0,-20.931l-18.508,0c-4.03,0.226 -7.404,0.534 -11.091,2.096c-9.421,3.991 -11.415,13.733 -11.966,22.991l0,14.317l-14.779,0l0,21.096l14.779,0l0,59.094Z" style="fill:#fff;"/></svg>