<?xml version="1.0" encoding="UTF-8" standalone="no"?><!DOCTYPE svg PUBLIC "-//W3C//DTD SVG 1.1//EN" "http://www.w3.org/Graphics/SVG/1.1/DTD/svg11.dtd"><svg width="100%" height="100%" viewBox="0 0 129 128" version="1.1" xmlns="http://www.w3.org/2000/svg" xmlns:xlink="http://www.w3.org/1999/xlink" xml:space="preserve" style="fill-rule:evenodd;clip-rule:evenodd;stroke-linejoin:round;stroke-miterlimit:1.41421;"><path d="M64.925,0c35.323,0 64,28.677 64,64c0,35.323 -28.677,64 -64,64c-35.322,0 -64,-28.677 -64,-64c0,-35.323 28.678,-64 64,-64Zm-23.829,48.549l-18.633,0l0,55.9l18.633,0l0,-55.9Zm10.034,0l0,55.9l18.633,0c0,-0.04 0.105,-25.039 0,-32.25c-0.06,-4.124 3.414,-10.4 10.033,-10.392c6.83,0.009 9.283,6.254 9.317,9.675c0.078,7.896 0,32.967 0,32.967l18.992,0c0,-0.046 -0.001,-28.494 -0.359,-35.834c-0.511,-10.486 -6.046,-17.331 -12.9,-20.066c-4.836,-1.93 -13.372,-1.53 -17.2,0.358c-6.151,3.035 -7.883,7.525 -7.883,7.525l0,-7.883l-18.633,0Zm-19.529,-27.233c5.438,0 9.854,4.415 9.854,9.854c0,5.438 -4.416,9.854 -9.854,9.854c-5.439,0 -9.855,-4.416 -9.855,-9.854c0,-5.439 4.416,-9.854 9.855,-9.854Z"/></svg>