<?xml version="1.0" encoding="UTF-8" standalone="no"?><!DOCTYPE svg PUBLIC "-//W3C//DTD SVG 1.1//EN" "http://www.w3.org/Graphics/SVG/1.1/DTD/svg11.dtd"><svg width="100%" height="100%" viewBox="0 0 129 128" version="1.1" xmlns="http://www.w3.org/2000/svg" xmlns:xlink="http://www.w3.org/1999/xlink" xml:space="preserve" style="fill-rule:evenodd;clip-rule:evenodd;stroke-linejoin:round;stroke-miterlimit:1.41421;"><path d="M64.925,0c35.323,0 64,28.677 64,64c0,35.323 -28.677,64 -64,64c-35.322,0 -64,-28.677 -64,-64c0,-35.323 28.678,-64 64,-64Zm47.998,63.999c-0.001,-0.193 -0.058,-6.136 0,-13.641c0.087,-11.182 -2.566,-19.749 -6.722,-24.356c-2.787,-3.089 -7.852,-9.986 -28.154,-10c-8.669,-0.006 -13.122,0 -13.122,0l0,-0.001c0,0 -4.452,-0.006 -13.121,0c-20.302,0.014 -25.367,6.911 -28.154,10c-4.156,4.607 -6.809,13.173 -6.722,24.356c0.058,7.532 0.001,13.491 0,13.641l0,0l0,0.001l0,0.002l0,0c0.001,0.15 0.058,6.109 0,13.641c-0.087,11.182 2.566,19.749 6.722,24.356c2.787,3.089 7.852,9.986 28.154,10c8.648,0.006 13.099,0 13.121,0l0,0.001c0,0 4.453,0.006 13.122,0c20.302,-0.014 25.367,-6.911 28.154,-10c4.156,-4.607 6.809,-13.173 6.722,-24.356c-0.058,-7.505 -0.001,-13.448 0,-13.641l0,0l0,-0.001l0,-0.002l0,0Zm-28.498,-38.999c10.764,0.001 19.5,8.738 19.5,19.5l0,39c0,10.762 -8.737,19.5 -19.5,19.5l-39,0c-10.762,0 -19.5,-8.738 -19.5,-19.5l0,-39c0,-10.762 8.737,-19.499 19.5,-19.5l39,0Zm-19.5,14c13.798,0 25,11.202 25,25c0,13.798 -11.202,25 -25,25c-13.797,0 -25,-11.202 -25,-25c0,-13.798 11.203,-25 25,-25Zm0,9.326c8.651,0 15.675,7.023 15.675,15.674c0,8.651 -7.024,15.674 -15.675,15.674c-8.65,0 -15.674,-7.023 -15.674,-15.674c0,-8.651 7.024,-15.674 15.674,-15.674Zm25.438,-15.606c3.193,0 5.785,2.592 5.785,5.784c0,3.193 -2.592,5.785 -5.785,5.785c-3.193,0 -5.785,-2.592 -5.785,-5.785c0,-3.192 2.592,-5.784 5.785,-5.784Z" style="fill:#fff;"/></svg>