<?xml version="1.0" encoding="UTF-8" standalone="no"?><!DOCTYPE svg PUBLIC "-//W3C//DTD SVG 1.1//EN" "http://www.w3.org/Graphics/SVG/1.1/DTD/svg11.dtd"><svg width="100%" height="100%" viewBox="0 0 129 128" version="1.1" xmlns="http://www.w3.org/2000/svg" xmlns:xlink="http://www.w3.org/1999/xlink" xml:space="preserve" style="fill-rule:evenodd;clip-rule:evenodd;stroke-linejoin:round;stroke-miterlimit:1.41421;"><path d="M64.925,0c35.323,0 64,28.677 64,64c0,35.323 -28.677,64 -64,64c-35.322,0 -64,-28.677 -64,-64c0,-35.323 28.678,-64 64,-64Zm18.546,107.888c4.115,0 7.454,-3.34 7.454,-7.454l0,-76.091c0,-4.114 -3.339,-7.454 -7.454,-7.455l-37.091,0c-4.115,0.001 -7.455,3.341 -7.455,7.455l0,76.091c0,4.114 3.341,7.454 7.455,7.454l37.091,0Zm-18.546,-9.611c2.377,0 4.306,1.929 4.306,4.306c0,2.376 -1.929,4.305 -4.306,4.305c-2.376,0 -4.305,-1.929 -4.305,-4.305c0,-2.377 1.929,-4.306 4.305,-4.306Zm22,-72.889l0,72l-44,0l0,-72l44,0Zm-30.305,-4.611c0.72,0 1.305,0.585 1.305,1.306c0,0.72 -0.585,1.305 -1.305,1.305c-0.721,0 -1.306,-0.585 -1.306,-1.305c0,-0.721 0.585,-1.306 1.306,-1.306Zm12,0c0.721,0 1.305,0.585 1.305,1.306c0,0.72 -0.584,1.305 -1.305,1.305l-7.389,0c-0.72,0 -1.306,-0.585 -1.306,-1.305c0,-0.721 0.585,-1.306 1.306,-1.306l7.389,0Z" style="fill:#fff;"/></svg>