<?xml version="1.0" encoding="UTF-8" standalone="no"?><!DOCTYPE svg PUBLIC "-//W3C//DTD SVG 1.1//EN" "http://www.w3.org/Graphics/SVG/1.1/DTD/svg11.dtd"><svg width="100%" height="100%" viewBox="0 0 129 128" version="1.1" xmlns="http://www.w3.org/2000/svg" xmlns:xlink="http://www.w3.org/1999/xlink" xml:space="preserve" style="fill-rule:evenodd;clip-rule:evenodd;stroke-linejoin:round;stroke-miterlimit:1.41421;"><path d="M64.925,0c35.323,0 64,28.677 64,64c0,35.323 -28.677,64 -64,64c-35.322,0 -64,-28.677 -64,-64c0,-35.323 28.678,-64 64,-64Zm-0.539,49.929c0,0 -0.602,-2.261 -0.588,-4.843c0.027,-4.903 4.503,-13.774 14.322,-15.327c8.315,-1.314 14.436,5.012 14.436,5.012c0,0 3.427,-0.766 5.062,-1.364c1.755,-0.641 5.461,-2.602 5.461,-2.602c0,0 -1.483,3.501 -2.628,4.962c-1.187,1.515 -4.495,4.128 -4.495,4.128c0,0 3.445,-0.543 5.011,-0.983c1.503,-0.422 4.38,-1.655 4.38,-1.655c0,0 -2.215,3.065 -3.352,4.267c-1.37,1.448 -4.865,4.418 -4.865,4.418c0,0 0.568,20.442 -12.385,34.119c-14.294,15.095 -30.227,15.134 -34.259,15.136c-15.957,0.009 -25.982,-7.356 -25.982,-7.356c0,0 6.76,0.861 14.117,-1.193c4.107,-1.147 10.526,-5.687 10.526,-5.687c0,0 -5.178,-0.001 -9.642,-3.326c-4.688,-3.491 -5.75,-8.137 -5.75,-8.137c0,0 2.186,0.38 3.919,0.245c1.734,-0.135 3.289,-0.808 3.289,-0.808c0,0 -5.141,-0.415 -9.535,-5.887c-4.107,-5.114 -3.482,-10.322 -3.482,-10.322c0,0 2.277,1.141 3.482,1.45c1.205,0.31 3.75,0.408 3.75,0.408c-1.278,-1.03 -2.575,-2.075 -3.601,-3.355c-1.024,-1.278 -1.936,-2.695 -2.484,-4.238c-1.708,-4.808 -1.333,-7.362 -0.041,-12.22c0.208,-0.783 0.674,-1.481 1.124,-2.155c1.264,1.548 2.547,3.118 4.107,4.368c3.649,2.924 7.281,5.988 11.452,8.102c4.002,2.027 8.45,3.056 12.792,4.184c1.902,0.494 3.895,0.577 5.859,0.659Z" style="fill:#fff;"/></svg>