<?xml version="1.0" encoding="UTF-8" standalone="no"?><!DOCTYPE svg PUBLIC "-//W3C//DTD SVG 1.1//EN" "http://www.w3.org/Graphics/SVG/1.1/DTD/svg11.dtd"><svg width="100%" height="100%" viewBox="0 0 129 125" version="1.1" xmlns="http://www.w3.org/2000/svg" xmlns:xlink="http://www.w3.org/1999/xlink" xml:space="preserve" style="fill-rule:evenodd;clip-rule:evenodd;stroke-linejoin:round;stroke-miterlimit:1.41421;"><path d="M46.448,124.728c-27.724,-7.971 -45.523,-32.243 -45.523,-61.014c0,-35.165 28.678,-63.714 64,-63.714c35.323,0 64,28.549 64,63.714c0,28.774 -22.445,55.884 -45.53,61.017c-0.575,0.128 -2.71,-0.961 -2.759,-2.539c-0.118,-3.797 0,-20.947 0,-20.947c0,0 -0.534,-3.741 -1.24,-5.238c-0.683,-1.445 -2.999,-3.74 -2.999,-3.74c0,0 7.495,-0.885 10.972,-2.244c5.246,-2.051 10.681,-5.736 13.715,-10.474c3.034,-4.738 4.2,-11.734 4.24,-18.204c0.075,-12.185 -6.235,-17.705 -6.235,-17.705c0,0 0.992,-5.691 0.998,-8.479c0.01,-4.906 -1.995,-8.728 -1.995,-8.728c0,0 -2.006,-0.884 -8.978,1.746c-4.289,1.618 -8.728,4.738 -8.728,4.738c0,0 -10.265,-2.203 -15.71,-2.244c-5.444,-0.042 -15.96,2.244 -15.96,2.244c0,0 -5.005,-2.999 -8.229,-4.489c-5.282,-2.44 -9.476,-1.995 -9.476,-1.995c0,0 -1.938,5.387 -1.995,8.23c-0.107,5.347 1.496,8.728 1.496,8.728c0,0 -6.935,6.047 -6.483,18.453c0.433,11.899 3.273,18.99 11.72,24.937c6.668,4.694 16.957,5.486 16.957,5.486c0,0 -1.944,2.542 -2.601,3.939c-0.665,1.413 -1.139,4.789 -1.139,4.789c0,0 -5.392,1.296 -7.98,1.247c-2.615,-0.049 -5.708,-1.293 -7.731,-2.992c-2.078,-1.746 -3.2,-5.071 -4.987,-6.733c-1.497,-1.393 -3.741,-3.034 -5.486,-3.492c-1.608,-0.421 -5.192,-0.589 -5.237,0.499c-0.027,0.649 0.918,1.88 2.04,2.854c1.172,1.017 1.611,0.594 3.197,2.383c1.93,2.177 3.712,5.454 5.237,8.728c1.472,3.162 4.377,5.233 7.481,5.985c5.651,1.369 13.216,0 13.216,0c0,0 0.046,10.328 0,12.718c-0.03,1.596 -1.178,2.85 -2.268,2.536Z"/></svg>