<?xml version="1.0" encoding="UTF-8" standalone="no"?><!DOCTYPE svg PUBLIC "-//W3C//DTD SVG 1.1//EN" "http://www.w3.org/Graphics/SVG/1.1/DTD/svg11.dtd"><svg width="100%" height="100%" viewBox="0 0 129 128" version="1.1" xmlns="http://www.w3.org/2000/svg" xmlns:xlink="http://www.w3.org/1999/xlink" xml:space="preserve" style="fill-rule:evenodd;clip-rule:evenodd;stroke-linejoin:round;stroke-miterlimit:1.41421;"><path d="M51.532,126.594c-28.902,-6.164 -50.607,-31.864 -50.607,-62.594c0,-35.323 28.678,-64 64,-64c35.323,0 64,28.677 64,64c0,32.038 -23.591,58.609 -54.335,63.274l0,-59.774l16.198,0l2.309,-20.635l-18.969,0l0,-11.545c0,0 -0.009,-4 1.199,-5.618c1.508,-1.734 4.817,-1.771 4.839,-1.772l12.931,0l0,-20.93l-18.507,0c-4.031,0.226 -7.404,0.534 -11.091,2.096c-9.422,3.991 -11.415,13.733 -11.967,22.991l0,14.317l-14.778,0l0,21.096l14.778,0l0,59.094Z" style="fill:#fff;"/></svg>