<?xml version="1.0" encoding="UTF-8" standalone="no"?><!DOCTYPE svg PUBLIC "-//W3C//DTD SVG 1.1//EN" "http://www.w3.org/Graphics/SVG/1.1/DTD/svg11.dtd"><svg width="100%" height="100%" viewBox="0 0 129 128" version="1.1" xmlns="http://www.w3.org/2000/svg" xmlns:xlink="http://www.w3.org/1999/xlink" xml:space="preserve" style="fill-rule:evenodd;clip-rule:evenodd;stroke-linejoin:round;stroke-miterlimit:1.41421;"><path d="M64.925,0c35.323,0 64,28.677 64,64c0,35.323 -28.677,64 -64,64c-35.322,0 -64,-28.677 -64,-64c0,-35.323 28.678,-64 64,-64Zm0.113,92.192c-1.086,-0.004 -10.024,-0.109 -17.919,-2.391c-7.494,-2.166 -16.465,-8.336 -16.465,-8.336c0,0 5.081,5.261 8.058,7.23c3.13,2.07 10.72,5.368 10.72,5.368l-3.43,4.726c0,0 -8.064,-0.551 -16.434,-4.085c-4.469,-1.886 -11.826,-8.467 -11.826,-8.467c0,0 0.792,-13.274 4.47,-27.548c2.755,-10.69 8.442,-20.713 8.442,-20.713c0,0 4.923,-3.391 9.271,-5.267c5.211,-2.247 12.339,-3.498 12.339,-3.498l1.235,2.461c0,0 -5.606,0.867 -11.679,4.061c-3.336,1.754 -8.632,6.698 -8.632,6.698c0,0 8.316,-4.537 12.814,-5.915c9.421,-2.885 19.146,-2.63 19.146,-2.63l0.111,-0.002c1.102,-0.018 10.202,-0.073 19.034,2.632c4.498,1.378 12.814,5.915 12.814,5.915c0,0 -5.296,-4.944 -8.631,-6.698c-6.074,-3.194 -11.679,-4.061 -11.679,-4.061l1.235,-2.461c0,0 7.127,1.251 12.338,3.498c4.348,1.876 9.271,5.267 9.271,5.267c0,0 5.688,10.023 8.442,20.713c3.678,14.274 4.47,27.548 4.47,27.548c0,0 -7.357,6.581 -11.825,8.467c-8.37,3.534 -16.435,4.085 -16.435,4.085l-3.43,-4.726c0,0 7.591,-3.298 10.72,-5.368c2.977,-1.969 8.058,-7.23 8.058,-7.23c0,0 -8.971,6.17 -16.465,8.336c-8.421,2.434 -18.028,2.391 -18.028,2.391l-0.11,0Zm-13.687,-32.467c4.178,0 7.571,3.867 7.571,8.631c0,4.763 -3.393,8.63 -7.571,8.63c-4.179,0 -7.572,-3.867 -7.572,-8.63c0,-4.764 3.393,-8.631 7.572,-8.631Zm27.594,0c-4.179,0 -7.572,3.867 -7.572,8.631c0,4.763 3.393,8.63 7.572,8.63c4.179,0 7.571,-3.867 7.571,-8.63c0,-4.764 -3.392,-8.631 -7.571,-8.631Z" style="fill:#fff;"/></svg>